

 <svg xmlns="http://www.w3.org/2000/svg" height="44px" width="44px"	 viewBox="0 0 141.73 141.73">
		<path style="fill-rule:nonzero;fill-opacity:1;" stroke="#3b9baa" fill="#3b9baa" d="M107.34,48.44H34.39c-1.22,0-2.21-0.99-2.21-2.21V15.76c0-1.22,0.99-2.21,2.21-2.21h72.95
			c1.22,0,2.21,0.99,2.21,2.21v30.47C109.55,47.45,108.56,48.44,107.34,48.44z M36.6,44.02h68.53V17.97H36.6V44.02z"/>

		<path style="fill-rule:nonzero;fill-opacity:1;" stroke="#3b9baa" fill="#3b9baa" d="M117.54,140.07H24.19c-1.22,0-2.21-0.99-2.21-2.21V3.88c0-1.22,0.99-2.21,2.21-2.21h93.36
			c1.22,0,2.21,0.99,2.21,2.21v133.98C119.75,139.08,118.76,140.07,117.54,140.07z M26.4,135.65h88.94V6.08H26.4V135.65z"/>
	
		<path style="fill-rule:nonzero;fill-opacity:1;" stroke="#3b9baa" fill="#3b9baa" d="M43.69,75.93c-6.62,0-12-5.39-12-12c0-6.62,5.38-12,12-12s12,5.39,12,12
			C55.7,70.55,50.31,75.93,43.69,75.93z M43.69,56.34c-4.18,0-7.59,3.4-7.59,7.59s3.4,7.59,7.59,7.59c4.18,0,7.59-3.4,7.59-7.59
			S47.88,56.34,43.69,56.34z"/>

		<path style="fill-rule:nonzero;fill-opacity:1;" stroke="#3b9baa" fill="#3b9baa" d="M70.37,75.93c-6.62,0-12-5.39-12-12c0-6.62,5.39-12,12-12s12,5.39,12,12
			C82.37,70.55,76.99,75.93,70.37,75.93z M70.37,56.34c-4.18,0-7.59,3.4-7.59,7.59s3.4,7.59,7.59,7.59c4.18,0,7.59-3.4,7.59-7.59
			S74.55,56.34,70.37,56.34z"/>

		<path style="fill-rule:nonzero;fill-opacity:1;" stroke="#3b9baa" fill="#3b9baa" d="M97.05,75.93c-6.62,0-12-5.39-12-12c0-6.62,5.38-12,12-12c6.62,0,12,5.39,12,12
			C109.05,70.55,103.67,75.93,97.05,75.93z M97.05,56.34c-4.18,0-7.59,3.4-7.59,7.59s3.4,7.59,7.59,7.59c4.18,0,7.59-3.4,7.59-7.59
			S101.23,56.34,97.05,56.34z"/>
	
		<path style="fill-rule:nonzero;fill-opacity:1;" stroke="#3b9baa" fill="#3b9baa" d="M43.69,101.93c-6.62,0-12-5.39-12-12c0-6.62,5.38-12,12-12s12,5.39,12,12
			C55.7,96.55,50.31,101.93,43.69,101.93z M43.69,82.34c-4.18,0-7.59,3.4-7.59,7.59s3.4,7.59,7.59,7.59c4.18,0,7.59-3.4,7.59-7.59
			S47.88,82.34,43.69,82.34z"/>
	
		<path style="fill-rule:nonzero;fill-opacity:1;" stroke="#3b9baa" fill="#3b9baa" d="M70.37,101.93c-6.62,0-12-5.39-12-12c0-6.62,5.39-12,12-12s12,5.39,12,12
			C82.37,96.55,76.99,101.93,70.37,101.93z M70.37,82.34c-4.18,0-7.59,3.4-7.59,7.59s3.4,7.59,7.59,7.59c4.18,0,7.59-3.4,7.59-7.59
			S74.55,82.34,70.37,82.34z"/>

		<path style="fill-rule:nonzero;fill-opacity:1;" stroke="#3b9baa" fill="#3b9baa" d="M97.05,101.93c-6.62,0-12-5.39-12-12c0-6.62,5.38-12,12-12c6.62,0,12,5.39,12,12
			C109.05,96.55,103.67,101.93,97.05,101.93z M97.05,82.34c-4.18,0-7.59,3.4-7.59,7.59s3.4,7.59,7.59,7.59
			c4.18,0,7.59-3.4,7.59-7.59S101.23,82.34,97.05,82.34z"/>
	
		<path style="fill-rule:nonzero;fill-opacity:1;" stroke="#3b9baa" fill="#3b9baa" d="M43.69,127.94c-6.62,0-12-5.39-12-12c0-6.62,5.38-12,12-12s12,5.39,12,12
			C55.7,122.55,50.31,127.94,43.69,127.94z M43.69,108.34c-4.18,0-7.59,3.4-7.59,7.59s3.4,7.59,7.59,7.59c4.18,0,7.59-3.4,7.59-7.59
			S47.88,108.34,43.69,108.34z"/>
	

		<path style="fill-rule:nonzero;fill-opacity:1;" stroke="#3b9baa" fill="#3b9baa" d="M70.37,127.94c-6.62,0-12-5.39-12-12c0-6.62,5.39-12,12-12s12,5.39,12,12
			C82.37,122.55,76.99,127.94,70.37,127.94z M70.37,108.34c-4.18,0-7.59,3.4-7.59,7.59s3.4,7.59,7.59,7.59
			c4.18,0,7.59-3.4,7.59-7.59S74.55,108.34,70.37,108.34z"/>

		<path style="fill-rule:nonzero;fill-opacity:1;" stroke="#3b9baa" fill="#3b9baa" d="M97.05,127.94c-6.62,0-12-5.39-12-12c0-6.62,5.38-12,12-12c6.62,0,12,5.39,12,12
			C109.05,122.55,103.67,127.94,97.05,127.94z M97.05,108.34c-4.18,0-7.59,3.4-7.59,7.59s3.4,7.59,7.59,7.59
			c4.18,0,7.59-3.4,7.59-7.59S101.23,108.34,97.05,108.34z"/>
		</g>
</svg>
