<svg xmlns="http://www.w3.org/2000/svg" height="44px" width="44px" viewBox="0 0 141.73 141.73">
				<g>

					<path style="fill-rule:nonzero;fill-opacity:1;" stroke="#3b9baa" fill="#3b9baa" d="M137.84,83.04H3.73c-1.47,0-2.66-1.19-2.66-2.66V10.22c0-1.47,1.19-2.66,2.66-2.66h134.11
						c1.47,0,2.66,1.19,2.66,2.66v70.16C140.5,81.85,139.31,83.04,137.84,83.04z M6.39,77.72h128.79V12.89H6.39V77.72z"/>

						<path style="fill-rule:nonzero;fill-opacity:1;" stroke="#3b9baa" fill="#3b9baa" d="M73.27,133.34c-1.47,0-2.66-1.19-2.66-2.66V92.8c0-1.47,1.19-2.66,2.66-2.66s2.66,1.19,2.66,2.66
							v37.87C75.93,132.14,74.74,133.34,73.27,133.34z"/>

							<path style="fill-rule:nonzero;fill-opacity:1;" stroke="#3b9baa" fill="#3b9baa" d="M89.41,119.06c-1.47,0-2.66-1.19-2.66-2.66V92.8c0-1.47,1.19-2.66,2.66-2.66s2.66,1.19,2.66,2.66
							v23.59C92.07,117.86,90.88,119.06,89.41,119.06z"/>

						<path style="fill-rule:nonzero;fill-opacity:1;" stroke="#3b9baa" fill="#3b9baa" d="M57.13,114.4c-1.47,0-2.66-1.19-2.66-2.66V92.8c0-1.47,1.19-2.66,2.66-2.66s2.66,1.19,2.66,2.66
							v18.94C59.79,113.21,58.6,114.4,57.13,114.4z"/>

					<path style="fill-rule:nonzero;fill-opacity:1;" stroke="#3b9baa" fill="#3b9baa" d="M90.63,30.28H19.85c-1.47,0-2.66-1.19-2.66-2.66s1.19-2.66,2.66-2.66h70.78
						c1.47,0,2.66,1.19,2.66,2.66S92.1,30.28,90.63,30.28z"/>

					<path style="fill-rule:nonzero;fill-opacity:1;" stroke="#3b9baa" fill="#3b9baa" d="M90.63,41.66H19.85c-1.47,0-2.66-1.19-2.66-2.66s1.19-2.66,2.66-2.66h70.78
						c1.47,0,2.66,1.19,2.66,2.66S92.1,41.66,90.63,41.66z"/>


					<path style="fill-rule:nonzero;fill-opacity:1;" stroke="#3b9baa" fill="#3b9baa" d="M90.63,53.05H19.85c-1.47,0-2.66-1.19-2.66-2.66s1.19-2.66,2.66-2.66h70.78
						c1.47,0,2.66,1.19,2.66,2.66S92.1,53.05,90.63,53.05z"/>


					<path style="fill-rule:nonzero;fill-opacity:1;" stroke="#3b9baa" fill="#3b9baa" d="M65.18,64.43H19.85c-1.47,0-2.66-1.19-2.66-2.66s1.19-2.66,2.66-2.66h45.32
						c1.47,0,2.66,1.19,2.66,2.66S66.65,64.43,65.18,64.43z"/>

					<path style="fill-rule:nonzero;fill-opacity:1;" stroke="#3b9baa" fill="#3b9baa" d="M123.56,45.17h-16.14c-1.47,0-2.66-1.19-2.66-2.66V26.37c0-1.47,1.19-2.66,2.66-2.66h16.14
						c1.47,0,2.66,1.19,2.66,2.66v16.14C126.22,43.98,125.03,45.17,123.56,45.17z M110.08,39.85h10.82V29.03h-10.82V39.85z"/>

				</g>
</svg>