<svg xmlns="http://www.w3.org/2000/svg" height="44px" width="44px"	viewBox="0 0 141.73 141.73">
	<g>

		<path style="fill-rule:nonzero;fill-opacity:1;" stroke="#3b9baa" fill="#3b9baa" d="M92.03,117.61H6.65c-1.48,0-2.68-1.2-2.68-2.68c0-30.95,25.18-56.14,56.14-56.14
		c22.25,0,42.42,13.16,51.39,33.52c0.6,1.36-0.02,2.94-1.37,3.54c-1.36,0.6-2.94-0.02-3.54-1.37
		C98.47,76.05,80.22,64.15,60.1,64.15c-27.09,0-49.3,21.33-50.7,48.08h82.62c1.48,0,2.68,1.2,2.68,2.68S93.51,117.61,92.03,117.61z
		"/>

		<path style="fill-rule:nonzero;fill-opacity:1;" stroke="#3b9baa" fill="#3b9baa" d="M60.1,64.15c-16.97,0-30.78-13.81-30.78-30.78S43.13,2.6,60.1,2.6s30.78,13.81,30.78,30.78
		S77.07,64.15,60.1,64.15z M60.1,7.97c-14.01,0-25.41,11.4-25.41,25.41s11.4,25.41,25.41,25.41s25.41-11.4,25.41-25.41
		S74.11,7.97,60.1,7.97z"/>

		<path style="fill-rule:nonzero;fill-opacity:1;" stroke="#3b9baa" fill="#3b9baa" d="M113.55,139.13c-13.35,0-24.21-10.86-24.21-24.21c0-13.35,10.86-24.21,24.21-24.21
		s24.21,10.86,24.21,24.21C137.77,128.27,126.9,139.13,113.55,139.13z M113.55,96.08c-10.39,0-18.84,8.45-18.84,18.84
		c0,10.39,8.45,18.84,18.84,18.84c10.39,0,18.84-8.45,18.84-18.84C132.4,104.53,123.95,96.08,113.55,96.08z"/>

	
		<path style="fill-rule:nonzero;fill-opacity:1;" stroke="#3b9baa" fill="#3b9baa" d="M125.82,117.61h-24.54c-1.48,0-2.68-1.2-2.68-2.68s1.2-2.68,2.68-2.68h24.54
			c1.48,0,2.68,1.2,2.68,2.68S127.3,117.61,125.82,117.61z"/>
	
		<path style="fill-rule:nonzero;fill-opacity:1;" stroke="#3b9baa" fill="#3b9baa" d="M113.55,129.87c-1.48,0-2.68-1.2-2.68-2.68v-24.54c0-1.48,1.2-2.68,2.68-2.68s2.68,1.2,2.68,2.68
			v24.54C116.24,128.67,115.04,129.87,113.55,129.87z"/>
</svg>