

<svg xmlns="http://www.w3.org/2000/svg" height="44px" width="44px" version="1.1" viewBox="0 0 141.73 141.73">
	<g>
		<path style="fill-rule:nonzero;fill-opacity:1;" stroke="#3b9baa" fill="#3b9baa" d="M117.9,139.82H23.83c-1.16,0-2.1-0.94-2.1-2.1V11.31c0-1.16,0.94-2.1,2.1-2.1h29.84
			c1.16,0,2.1,0.94,2.1,2.1s-0.94,2.1-2.1,2.1H25.93v122.2h89.86V13.41H89.83c-1.16,0-2.1-0.94-2.1-2.1s0.94-2.1,2.1-2.1h28.07
			c1.16,0,2.1,0.94,2.1,2.1v126.41C120.01,138.88,119.06,139.82,117.9,139.82z"/>

		<path style="fill-rule:nonzero;fill-opacity:1;" stroke="#3b9baa" fill="#3b9baa" d="M104.97,52.8H38.53c-1.16,0-2.1-0.94-2.1-2.1c0-1.16,0.94-2.1,2.1-2.1h66.44
			c1.16,0,2.1,0.94,2.1,2.1C107.07,51.86,106.13,52.8,104.97,52.8z"/>

		<path style="fill-rule:nonzero;fill-opacity:1;" stroke="#3b9baa" fill="#3b9baa" d="M104.97,68.09H38.53c-1.16,0-2.1-0.94-2.1-2.1s0.94-2.1,2.1-2.1h66.44c1.16,0,2.1,0.94,2.1,2.1
			S106.13,68.09,104.97,68.09z"/>

		<path style="fill-rule:nonzero;fill-opacity:1;" stroke="#3b9baa" fill="#3b9baa" d="M104.97,82.2H38.53c-1.16,0-2.1-0.94-2.1-2.1c0-1.16,0.94-2.1,2.1-2.1h66.44
			c1.16,0,2.1,0.94,2.1,2.1C107.07,81.26,106.13,82.2,104.97,82.2z"/>

		<path style="fill-rule:nonzero;fill-opacity:1;" stroke="#3b9baa" fill="#3b9baa" d="M89.09,21.44h-34.8c-0.95,0-1.71-0.77-1.71-1.71V3.63c0-0.95,0.77-1.71,1.71-1.71h34.8
			c0.95,0,1.71,0.77,1.71,1.71v16.1C90.81,20.67,90.04,21.44,89.09,21.44z M56,18.01h31.38V5.34H56V18.01z"/>

		<path style="fill-rule:nonzero;fill-opacity:1;" stroke="#3b9baa" fill="#3b9baa" d="M82.77,38.98H38.53c-1.16,0-2.1-0.94-2.1-2.1c0-1.16,0.94-2.1,2.1-2.1h44.24
			c1.16,0,2.1,0.94,2.1,2.1C84.88,38.04,83.93,38.98,82.77,38.98z"/>

		<path style="fill-rule:nonzero;fill-opacity:1;" stroke="#3b9baa" fill="#3b9baa" d="M107.91,38.98H94.24c-1.16,0-2.1-0.94-2.1-2.1c0-1.16,0.94-2.1,2.1-2.1h13.67
			c1.16,0,2.1,0.94,2.1,2.1C110.01,38.04,109.07,38.98,107.91,38.98z"/>

		<path style="fill-rule:nonzero;fill-opacity:1;" stroke="#3b9baa" fill="#3b9baa" d="M56.35,131.53h-7.59c-1.16,0-2.1-0.94-2.1-2.1V114.7c0-1.16,0.94-2.1,2.1-2.1h7.59
			c1.16,0,2.1,0.94,2.1,2.1v14.72C58.46,130.58,57.52,131.53,56.35,131.53z M50.87,127.32h3.38V116.8h-3.38V127.32z"/>

		<path style="fill-rule:nonzero;fill-opacity:1;" stroke="#3b9baa" fill="#3b9baa" d="M75.72,131.53h-7.59c-1.16,0-2.1-0.94-2.1-2.1v-19.18c0-1.16,0.94-2.1,2.1-2.1h7.59
			c1.16,0,2.1,0.94,2.1,2.1v19.18C77.83,130.58,76.89,131.53,75.72,131.53z M70.24,127.32h3.38v-14.97h-3.38V127.32z"/>

		<path style="fill-rule:nonzero;fill-opacity:1;" stroke="#3b9baa" fill="#3b9baa" d="M95.09,131.53h-7.59c-1.16,0-2.1-0.94-2.1-2.1v-24.5c0-1.16,0.94-2.1,2.1-2.1h7.59
			c1.16,0,2.1,0.94,2.1,2.1v24.5C97.2,130.58,96.26,131.53,95.09,131.53z M89.61,127.32h3.38v-20.29h-3.38V127.32z"/>

		<path style="fill-rule:nonzero;fill-opacity:1;" stroke="#3b9baa" fill="#3b9baa" d="M58.54,110.37c-0.45,0-0.89-0.15-1.26-0.42l-7.99-5.99l-2.79,4.16c-0.65,0.97-1.95,1.22-2.92,0.58
			c-0.97-0.65-1.22-1.95-0.58-2.92l4.02-6c0.32-0.48,0.83-0.81,1.39-0.9c0.57-0.1,1.15,0.04,1.62,0.39l7.88,5.91l8.41-14.45
			c0.36-0.62,1.02-1.02,1.75-1.04c0.76-0.02,1.41,0.32,1.81,0.92l5.56,8.19l0.89-1.81c0.4-0.82,1.29-1.28,2.2-1.15l10.06,1.51
			l4.6-9.75c0.5-1.05,1.75-1.5,2.8-1.01c1.05,0.5,1.5,1.75,1.01,2.8l-5.27,11.17c-0.4,0.84-1.3,1.32-2.21,1.18l-10.09-1.51
			l-1.81,3.68c-0.33,0.67-0.99,1.12-1.74,1.17c-0.74,0.05-1.46-0.3-1.89-0.92l-5.71-8.41l-7.92,13.61c-0.3,0.52-0.81,0.88-1.4,1
			C58.82,110.36,58.68,110.37,58.54,110.37z"/>
	</g>

</svg>
