<svg xmlns="http://www.w3.org/2000/svg" height="44px" width="44px" viewBox="0 0 141.73 141.73">
			<path style="fill-rule:nonzero;fill-opacity:1;" stroke="#3b9baa" fill="#3b9baa" d="M38.85,50.17c-3.72,0-36.37-0.33-36.37-11.65c0-11.32,32.65-11.65,36.37-11.65
				s36.37,0.33,36.37,11.65C75.22,49.85,42.57,50.17,38.85,50.17z M9.45,38.53c2.45,2,13.11,5.01,29.4,5.01s26.95-3.01,29.4-5.01
				c-2.45-2-13.11-5.01-29.4-5.01S11.9,36.53,9.45,38.53z M68.68,38.98h0.02H68.68z"/>

			<path style="fill-rule:nonzero;fill-opacity:1;" stroke="#3b9baa" fill="#3b9baa" d="M38.85,113.65c-3.72,0-36.37-0.33-36.37-11.65c0-1.83,1.49-3.32,3.32-3.32
				c1.72,0,3.13,1.31,3.3,2.98c1.58,1.98,12.51,5.34,29.75,5.34s28.17-3.37,29.75-5.34c0.17-1.68,1.58-2.98,3.3-2.98
				c1.83,0,3.32,1.49,3.32,3.32C75.22,113.32,42.57,113.65,38.85,113.65z"/>

			<path style="fill-rule:nonzero;fill-opacity:1;" stroke="#3b9baa" fill="#3b9baa" d="M38.85,97.2c-3.72,0-36.37-0.33-36.37-11.65c0-1.83,1.49-3.32,3.32-3.32
				c1.72,0,3.13,1.31,3.3,2.98c1.58,1.98,12.51,5.34,29.75,5.34s28.17-3.37,29.75-5.34c0.17-1.68,1.58-2.98,3.3-2.98
				c1.83,0,3.32,1.49,3.32,3.32C75.22,96.88,42.57,97.2,38.85,97.2z"/>

			<path style="fill-rule:nonzero;fill-opacity:1;" stroke="#3b9baa" fill="#3b9baa" d="M38.85,81.91c-3.72,0-36.37-0.33-36.37-11.65c0-1.83,1.49-3.32,3.32-3.32
				c1.72,0,3.13,1.31,3.3,2.98c1.58,1.98,12.51,5.34,29.75,5.34c17.23,0,28.17-3.37,29.75-5.34c0.17-1.68,1.58-2.98,3.3-2.98
				c1.83,0,3.32,1.49,3.32,3.32C75.22,81.58,42.57,81.91,38.85,81.91z"/>

			<path style="fill-rule:nonzero;fill-opacity:1;" stroke="#3b9baa" fill="#3b9baa" d="M38.85,66.95c-3.72,0-36.37-0.33-36.37-11.65c0-1.83,1.49-3.32,3.32-3.32
				c1.72,0,3.13,1.31,3.3,2.98c1.58,1.98,12.51,5.34,29.75,5.34s28.17-3.37,29.75-5.34c0.17-1.68,1.58-2.98,3.3-2.98
				c1.83,0,3.32,1.49,3.32,3.32C75.22,66.63,42.57,66.95,38.85,66.95z"/>

			<path style="fill-rule:nonzero;fill-opacity:1;" stroke="#3b9baa" fill="#3b9baa" d="M5.8,105.32c-1.83,0-3.32-1.49-3.32-3.32V38.53c0-1.83,1.49-3.32,3.32-3.32s3.32,1.49,3.32,3.32
				V102C9.12,103.84,7.63,105.32,5.8,105.32z"/>

			<path style="fill-rule:nonzero;fill-opacity:1;" stroke="#3b9baa" fill="#3b9baa" d="M71.9,105.32c-1.83,0-3.32-1.49-3.32-3.32V38.53c0-1.83,1.49-3.32,3.32-3.32
				c1.83,0,3.32,1.49,3.32,3.32V102C75.22,103.84,73.73,105.32,71.9,105.32z"/>

			<path style="fill-rule:nonzero;fill-opacity:1;" stroke="#3b9baa" fill="#3b9baa" d="M107.76,115.88v-7.93c-9.92-1.01-18.82-4.96-26.71-11.84l7.93-9.45
			c6.08,5.29,12.34,8.43,18.79,9.45V75.05c-8.18-1.95-14.17-4.52-17.97-7.71c-3.8-3.18-5.7-7.91-5.7-14.17
			c0-6.26,2.19-11.38,6.57-15.37c4.38-3.98,10.08-6.15,17.1-6.51v-5.43h6.95v5.54c7.96,0.58,15.49,3.3,22.59,8.14l-7.06,9.99
			c-4.78-3.4-9.96-5.5-15.53-6.3v20.41h0.32c8.32,1.95,14.44,4.6,18.35,7.93c3.91,3.33,5.86,8.16,5.86,14.5
			c0,6.34-2.24,11.49-6.73,15.47c-4.49,3.98-10.43,6.15-17.81,6.52v7.82H107.76z M100.11,45.78c-1.85,1.63-2.77,3.66-2.77,6.08
			c0,2.43,0.72,4.34,2.17,5.76s4.2,2.77,8.25,4.07V42.9C104.5,43.19,101.95,44.15,100.11,45.78z M122.96,93.4
			c2.03-1.66,3.04-3.76,3.04-6.3c0-2.53-0.8-4.54-2.39-6.03c-1.59-1.48-4.56-2.88-8.9-4.18v19.55
			C118.19,96.08,120.94,95.06,122.96,93.4z"/>

	</g>
</svg>