<svg xmlns="http://www.w3.org/2000/svg" height="44" width="44" viewBox="0 0 141.73 141.73"><g stroke="#3b9baa" fill="#3b9baa"><path d="M137.84 83.04H3.73c-1.47 0-2.66-1.19-2.66-2.66V10.22c0-1.47 1.19-2.66 2.66-2.66h134.11c1.47 0 2.66 1.19 2.66 2.66v70.16c0 1.47-1.19 2.66-2.66 2.66zM6.39 77.72h128.79V12.89H6.39v64.83zM73.27 133.34c-1.47 0-2.66-1.19-2.66-2.66V92.8c0-1.47 1.19-2.66 2.66-2.66s2.66 1.19 2.66 2.66v37.87c0 1.47-1.19 2.67-2.66 2.67zM89.41 119.06c-1.47 0-2.66-1.19-2.66-2.66V92.8c0-1.47 1.19-2.66 2.66-2.66s2.66 1.19 2.66 2.66v23.59c0 1.47-1.19 2.67-2.66 2.67zM57.13 114.4c-1.47 0-2.66-1.19-2.66-2.66V92.8c0-1.47 1.19-2.66 2.66-2.66s2.66 1.19 2.66 2.66v18.94c0 1.47-1.19 2.66-2.66 2.66z"/><path d="M90.63 30.28H19.85c-1.47 0-2.66-1.19-2.66-2.66s1.19-2.66 2.66-2.66h70.78c1.47 0 2.66 1.19 2.66 2.66s-1.19 2.66-2.66 2.66zM90.63 41.66H19.85c-1.47 0-2.66-1.19-2.66-2.66s1.19-2.66 2.66-2.66h70.78c1.47 0 2.66 1.19 2.66 2.66s-1.19 2.66-2.66 2.66zM90.63 53.05H19.85c-1.47 0-2.66-1.19-2.66-2.66s1.19-2.66 2.66-2.66h70.78c1.47 0 2.66 1.19 2.66 2.66s-1.19 2.66-2.66 2.66zM65.18 64.43H19.85c-1.47 0-2.66-1.19-2.66-2.66s1.19-2.66 2.66-2.66h45.32c1.47 0 2.66 1.19 2.66 2.66s-1.18 2.66-2.65 2.66zM123.56 45.17h-16.14c-1.47 0-2.66-1.19-2.66-2.66V26.37c0-1.47 1.19-2.66 2.66-2.66h16.14c1.47 0 2.66 1.19 2.66 2.66v16.14c0 1.47-1.19 2.66-2.66 2.66zm-13.48-5.32h10.82V29.03h-10.82v10.82z"/></g></svg>