<svg xmlns="http://www.w3.org/2000/svg" height="44" width="44" viewBox="0 0 141.73 141.73"><g stroke="#3b9baa" fill="#3b9baa"><path d="M117.9 139.82H23.83a2.1 2.1 0 0 1-2.1-2.1V11.31c0-1.16.94-2.1 2.1-2.1h29.84a2.1 2.1 0 1 1 0 4.2H25.93v122.2h89.86V13.41H89.83a2.1 2.1 0 1 1 0-4.2h28.07c1.16 0 2.1.94 2.1 2.1v126.41c.01 1.16-.94 2.1-2.1 2.1z"/><path d="M104.97 52.8H38.53a2.1 2.1 0 1 1 0-4.2h66.44a2.1 2.1 0 1 1 0 4.2zM104.97 68.09H38.53a2.1 2.1 0 1 1 0-4.2h66.44a2.1 2.1 0 1 1 0 4.2zM104.97 82.2H38.53a2.1 2.1 0 1 1 0-4.2h66.44a2.1 2.1 0 1 1 0 4.2zM89.09 21.44h-34.8c-.95 0-1.71-.77-1.71-1.71V3.63c0-.95.77-1.71 1.71-1.71h34.8c.95 0 1.71.77 1.71 1.71v16.1c.01.94-.76 1.71-1.71 1.71zM56 18.01h31.38V5.34H56v12.67zM82.77 38.98H38.53a2.1 2.1 0 1 1 0-4.2h44.24c1.16 0 2.1.94 2.1 2.1.01 1.16-.94 2.1-2.1 2.1zM107.91 38.98H94.24a2.1 2.1 0 1 1 0-4.2h13.67a2.1 2.1 0 1 1 0 4.2zM56.35 131.53h-7.59a2.1 2.1 0 0 1-2.1-2.1V114.7c0-1.16.94-2.1 2.1-2.1h7.59c1.16 0 2.1.94 2.1 2.1v14.72c.01 1.16-.93 2.11-2.1 2.11zm-5.48-4.21h3.38V116.8h-3.38v10.52zM75.72 131.53h-7.59a2.1 2.1 0 0 1-2.1-2.1v-19.18c0-1.16.94-2.1 2.1-2.1h7.59c1.16 0 2.1.94 2.1 2.1v19.18c.01 1.15-.93 2.1-2.1 2.1zm-5.48-4.21h3.38v-14.97h-3.38v14.97zM95.09 131.53H87.5a2.1 2.1 0 0 1-2.1-2.1v-24.5c0-1.16.94-2.1 2.1-2.1h7.59c1.16 0 2.1.94 2.1 2.1v24.5c.01 1.15-.93 2.1-2.1 2.1zm-5.48-4.21h3.38v-20.29h-3.38v20.29zM58.54 110.37c-.45 0-.89-.15-1.26-.42l-7.99-5.99-2.79 4.16c-.65.97-1.95 1.22-2.92.58a2.108 2.108 0 0 1-.58-2.92l4.02-6c.32-.48.83-.81 1.39-.9.57-.1 1.15.04 1.62.39l7.88 5.91 8.41-14.45c.36-.62 1.02-1.02 1.75-1.04.76-.02 1.41.32 1.81.92l5.56 8.19.89-1.81c.4-.82 1.29-1.28 2.2-1.15l10.06 1.51 4.6-9.75c.5-1.05 1.75-1.5 2.8-1.01 1.05.5 1.5 1.75 1.01 2.8l-5.27 11.17c-.4.84-1.3 1.32-2.21 1.18l-10.09-1.51-1.81 3.68c-.33.67-.99 1.12-1.74 1.17-.74.05-1.46-.3-1.89-.92l-5.71-8.41-7.92 13.61c-.3.52-.81.88-1.4 1-.14 0-.28.01-.42.01z"/></g></svg>